<?xml version="1.0" standalone="no"?>
<!DOCTYPE svg PUBLIC "-//W3C//DTD SVG 20010904//EN"
 "http://www.w3.org/TR/2001/REC-SVG-20010904/DTD/svg10.dtd">
<svg version="1.0" xmlns="http://www.w3.org/2000/svg"
 width="501.000000pt" height="502.000000pt" viewBox="0 0 501.000000 502.000000"
 preserveAspectRatio="xMidYMid meet">
<metadata>
Created by potrace 1.16, written by Peter Selinger 2001-2019
</metadata>
<g transform="translate(0.000000,502.000000) scale(0.100000,-0.100000)"
fill="#000000" stroke="none">
<path d="M0 2510 l0 -2510 2505 0 2505 0 0 641 0 641 -61 66 c-34 37 -95 118
-136 180 l-75 112 -58 -117 c-356 -736 -1059 -1229 -1871 -1314 -143 -15 -473
-6 -594 15 -459 83 -821 250 -1155 532 -374 316 -645 760 -759 1244 -49 206
-56 276 -56 535 0 260 7 329 57 539 227 960 1034 1673 2023 1786 115 13 384
13 500 0 275 -31 571 -120 819 -248 220 -112 405 -249 591 -436 208 -209 364
-438 480 -704 18 -40 35 -74 37 -75 3 -1 33 39 66 88 33 50 90 125 126 167
l66 77 0 646 0 645 -2505 0 -2505 0 0 -2510z"/>
<path d="M2280 4574 c-826 -123 -1497 -727 -1701 -1531 -82 -325 -82 -691 0
-1016 206 -811 884 -1417 1717 -1532 155 -22 403 -22 558 0 929 129 1650 862
1766 1795 13 109 13 381 0 490 -57 460 -265 887 -589 1210 -320 319 -722 520
-1168 584 -139 20 -448 20 -583 0z m610 -329 c193 -32 396 -94 582 -176 98
-43 270 -136 307 -166 l22 -18 -150 -269 c-83 -148 -152 -271 -155 -273 -2 -2
-26 10 -54 26 -164 102 -469 223 -656 262 -121 25 -322 30 -406 10 -68 -17
-158 -61 -203 -100 -98 -87 -126 -251 -59 -349 75 -111 236 -191 687 -340 182
-60 379 -131 438 -157 253 -111 446 -269 553 -450 123 -211 120 -589 -7 -854
-143 -301 -427 -492 -839 -567 -116 -21 -390 -29 -520 -15 -337 37 -709 162
-980 330 -111 69 -230 154 -230 164 0 7 321 500 336 516 2 3 37 -18 77 -46
409 -285 889 -416 1235 -337 223 50 352 232 297 419 -36 127 -183 223 -479
315 -390 122 -661 215 -754 260 -321 154 -511 383 -552 665 -32 230 16 477
130 661 169 275 467 450 855 503 99 14 412 5 525 -14z"/>
</g>
</svg>
